<?xml version="1.0" encoding="UTF-8" standalone="no"?>
<svg
   xmlns:dc="http://purl.org/dc/elements/1.1/"
   xmlns:cc="http://creativecommons.org/ns#"
   xmlns:rdf="http://www.w3.org/1999/02/22-rdf-syntax-ns#"
   xmlns:svg="http://www.w3.org/2000/svg"
   xmlns="http://www.w3.org/2000/svg"
   width="512"
   height="512"
   viewBox="0 0 135.46667 135.46667"
   version="1.1"
   id="svg8">
  <defs
     id="defs2" />
  <metadata
     id="metadata5">
    <rdf:RDF>
      <cc:Work
         rdf:about="">
        <dc:format>image/svg+xml</dc:format>
        <dc:type
           rdf:resource="http://purl.org/dc/dcmitype/StillImage" />
        <dc:title></dc:title>
      </cc:Work>
    </rdf:RDF>
  </metadata>
  <g
     id="layer1">
    <path
       id="circle866"
       style="fill:#ffe08a;fill-opacity:1;stroke-width:8.00001"
       d="M 128 34.298828 A 256.00001 256.00001 0 0 0 0 255.99805 A 256.00001 256.00001 0 0 0 0 256 A 256.00001 256.00001 0 0 0 256 256 A 256.00001 256.00001 0 0 1 128 34.298828 z "
       transform="scale(0.26458334)" />
    <path
       id="circle868"
       style="fill:#48c78e;fill-opacity:1;stroke-width:8.00001"
       d="M 256 0 A 256.00001 256.00001 0 0 0 128 34.298828 A 256.00001 256.00001 0 0 0 256 256 A 256.00001 256.00001 0 0 1 384 34.298828 A 256.00001 256.00001 0 0 0 256 0 z "
       transform="scale(0.26458334)" />
    <path
       id="path839"
       style="fill:#3e8ed0;fill-opacity:1;stroke-width:8.00001"
       d="M 384 34.298828 A 256.00001 256.00001 0 0 0 256 256 A 256.00001 256.00001 0 0 1 383.15625 221.70312 A 256.00001 256.00001 0 0 1 384.3418 221.70117 A 256.00001 256.00001 0 0 1 512 256 A 256.00001 256.00001 0 0 0 384 34.298828 z "
       transform="scale(0.26458334)" />
    <path
       id="circle872"
       style="fill:#485fc7;fill-opacity:1;stroke-width:8.00001"
       d="M 384.3418 221.70117 A 256.00001 256.00001 0 0 0 383.15625 221.70312 A 256.00001 256.00001 0 0 0 256 256 A 256.00001 256.00001 0 0 1 384 477.70117 A 256.00001 256.00001 0 0 0 512 256.00195 A 256.00001 256.00001 0 0 0 512 256 A 256.00001 256.00001 0 0 0 384.3418 221.70117 z "
       transform="scale(0.26458334)" />
    <path
       id="circle874"
       style="fill:#00d1b2;fill-opacity:1;stroke-width:8.00001"
       d="M 256 256 A 256.00001 256.00001 0 0 1 128 477.70117 A 256.00001 256.00001 0 0 0 256 512 A 256.00001 256.00001 0 0 0 384 477.70117 A 256.00001 256.00001 0 0 0 256 256 z "
       transform="scale(0.26458334)" />
    <path
       id="circle864"
       style="fill:#f14668;fill-opacity:1;stroke-width:8.00001"
       d="M 0 256 A 256.00001 256.00001 0 0 0 128 477.70117 A 256.00001 256.00001 0 0 0 256 256 A 256.00001 256.00001 0 0 1 0 256 z "
       transform="scale(0.26458334)" />
  </g>
</svg>
